/* XPM */
static char *_da8f95d5a0f40cfd67faeaa7762ed14iBJlgGrB37Ja18qv[] = {
/* columns rows colors chars-per-pixel */
"64 64 43 1 ",
"  c #D08A86",
". c #D28D89",
"X c #D5938E",
"o c #CF9590",
"O c #D59691",
"+ c #D89791",
"@ c #D69995",
"# c #D89A96",
"$ c #DA9D99",
"% c #DE9E99",
"& c #E09D9A",
"* c #DBA19D",
"= c #E1A09B",
"- c #DDABA6",
"; c #DDACA7",
": c #DFADA8",
"> c #E0AEAA",
", c #E5B1AC",
"< c #E1B6B1",
"1 c #E6B7B2",
"2 c #E3B9B2",
"3 c #E4B8B3",
"4 c #E3B8B4",
"5 c #E5BAB6",
"6 c #E5BCB6",
"7 c #EABBB6",
"8 c #E8BDB7",
"9 c #E6BDB8",
"0 c #E8BFB9",
"q c #EDBFBB",
"w c #EAC0BB",
"e c #EBC2BD",
"r c #EFC2BC",
"t c #EDC4BE",
"y c #F0C3BE",
"u c #F0C5BF",
"i c #F2C7C2",
"p c #F2C9C3",
"a c #F4C8C2",
"s c #F3CBC5",
"d c #F4CBC5",
"f c #F3CCC6",
"g c #F4CCC5",
/* pixels */
"XXXXXXXXXXXXXXXXXXXXXXXXXXXXXXXOOXXXXXXXXXXXXXXXXXXXXXXXXXXXXXXX",
"XXX+XXOXOOOXOOXOXXXXXXOXXXXXXXXXXXXXXXXXXOXXXXXXOXOOXOOOXOXX+XXX",
"X@##$####OO####XXX@###@X@##@#*OXXO*#@##@X@###@XXX####OO####$##@X",
"XO@-sipqiX9ggiyXXX5ssss#9gggsg#XX#gsggg9#ssss5XXXyigg9Xiqpis;@OX",
"XX@4ggggsX9sggg#XX9gggg@6ggggg####ggggg6@gggg9XX#gggs9Xsgggg4@XX",
"XX@9dgggdX3ggggXXX9gggg@6ggggg####ggggg6@gggg9XXXgggg3Xdgggd9@XX",
"XO@9ggggsO5sgggXXX0gfgg#9ggggg####ggggg9#ggfg0XXXgggs5Osgggg9@OX",
"XXO9fgggsX6sgggXXX6gggp#9ggggg####ggggg9#pggg6XXXgggs6Xsgggf9OXX",
"XXO9gggggX9ggggXXXtgggfO9ggggf####fgggg9OfgggtXXXgggg9Xggggg9OXX",
"XO@6sggggX6ggggXXX6ggggX9pgggg@##@ggggp9Xgggg6XXXgggg6Xggggg6@OX",
"X@@5ggggsX9ggggXXX9ggggX6dgggg$##$ggggd6Xgggg9XXXgggg0Xsgggg5@@X",
"XO@6sgpgpX6ggsp#X+6gsdg#<fgggg####ggggf<#gdsg6+X#psgg6Xpgpgs6@OX",
"XOXOXXXXXXXXXXXXXXXXXXXXXXXXO+O@@O+OXXXXXXXXXXXXXXXXXXXXXXXXOXOX",
"XO@XXXXXXXXXXXXXXXX@OOXXXXOXXO####OXXOXXXXOO@XXXXXXXXXXXXXXXX@OX",
"X#@9ssdguX6ggggXX#5pgguX9ggggg####ggggg9Xuggp5#XXgggg6Xugdss9@#X",
"XO$9fgggpX6ggggXX#tgggsX0ggggd####dgggg0Xsgggt#XXgggg6Xpgggf9$OX",
"X#@9ggggdX5gggdXX#0ggggX9ggggg####ggggg9Xgggg0#XXdggg5Xdgggg9@#X",
"XO@6gggggX6ggggXXX9gggsX9ggggf####fgggg9Xsggg9XXXgggg6Xggggg6@OX",
"OO@9sggggX6ggggXXX6gggs#9sgggf####fgggs9#sggg6XXXgggg6Xggggs9@OO",
"X#O6gggggX6ggguXXX9gggdOiggggg####gggggiOdggg9XXXuggg6Xggggg6O#X",
"X*#9gggggX9ggggXXX0gggpX9ggggg####ggggg9Xpggg0XXXgggg9Xggggg9#*X",
"X#@>ggsg,X6ggggXXO9gpss#9sigg7$##$7ggis9#sspg9OXXgggg6X,gsgg>@#X",
"X@OX$+XXXX@#@XXXXXXXXXXXXXXXXXXOOXXXXXXXXXXXXXXXXXX@#@XXXX+$XO@X",
"XX@XXXXXXXOXOXXXXXXO@XOXXXXXXXO##OXXXXXXXOX@OXXXXXXOXOXXXXXXX@XX",
"XOX:dsdsrXwggggXXXegggsX8ggggg####ggggg8XsgggeXXXggggwXrsdsd:XOX",
"X#O6ggggiX6sgggXXXwgggsX6ggggg####ggggg6XsgggwXXXgggs6Xigggg6O#X",
"XX@9ggggiX0ggggXXX9gggsX9ggggg####ggggg9Xsggg9XXXgggg0Xigggg9@XX",
"XX@9ggggiX6ggggXXX0gggsX0ggggg####ggggg0Xsggg0XXXgggg6Xigggg9@XX",
"X#@9ggggiX9ggggXXX9gggpX9ggggg####ggggg9Xpggg9XXXgggg9Xigggg9@#X",
"OX@6ggggtX9ggggXXX9gggdX6gggga####agggg6Xdggg9XXXgggg9Xtgggg6@XO",
"XOO9ggggiXwgggsXXXwgggsX9sgggg####ggggs9XsgggwXXXsgggwXigggg9OOX",
"XX@9ggggsX9ggggXXX9ggggO60gggs####sggg06Ogggg9XXXgggg9Xsgggg9@XX",
"XX@5ggggsOegdqsXXXwggggO3pgggg####ggggp3OggggwXXXsqdgeOsgggg5@XX",
"XX@X@XXXXXXXXXXXXXXXXXXXXXXXX$XXXX$XXXXXXXXXXXXXXXXXXXXXXXX@X@XX",
"XXXXOXXXXXXXXXXXXXXXOOXXXXXXOXO##OXOXXXXXXOOXXXXXXXXXXXXXXXOXXXX",
"XXX6sggspX6ggggXXO9gggdX6gssdg####gdssg6Xdggg9OXXgggg6Xpsggs6XXX",
"XX@6sgggiX9ggggXXX9ggggX6fgggg####ggggf6Xgggg9XXXgggg9Xigggs6@XX",
"XX@9ggggqXepgggXXX6gggsX<fgggg@@@@ggggf<Xsggg6XXXgggpeXqgggg9@XX",
"XXX6sgggiX9ggggXXO0ggggXwggggg####gggggwXgggg0OXXgggg9Xigggs6XXX",
"#XO9gggqqX2ggggXXX6gggtO0fgggg$##$ggggf0Otggg6XXXgggg2Xqqggg9OX#",
"XOXXXXXXXXXXXXXXXXXXXXXXXXXXXXX##XXXXXXXXXXXXXXXXXXXXXXXXXXXXXOX",
"X@XXXXXXXXOXXXXXXXXXXXXXXXXXXXX@@XXXXXXXXXXXXXXXXXXXXOXXXXXXXX@X",
"X#O>ssfgpOegggdXXX9gggsX9ggsgi####igsgg9Xsggg9XXXdgggeOpggss>O#X",
"XX#1pggsg@eggggXXXegggsX>sgdsg####gsdgs>XsgggeXXXgggge@gsggp1#XX",
"XXOXXXXXXOOXXXOXXXOXXOOXOXXXOO####OOXXXOXOOXXOXXXOXXXOOXXXXXXOXX",
"XXXXXXXXXXXXXXXXXXXXXXXXXXXXOXXOOXXOXXXXXXXXXXXXXXXXXXXXXXXXXXXX",
"XXXXOXXXXXXXXXXXXXX+XXOXXXXXOOXXXXOOXXXXXOXX+XXXXXXXXXXXXXXOXXXX",
"XXX%Oo@O@OOO@@@XXX@=#O@@@O@O@#XOOX#@O@O@@@O#=@XXX@@@OOO@O@oO%XXX",
"XXO@@@@@@@@@@@@XXX@=#@@@@#@@@XXXXXX@@@#@@@@#=@XXX@@@@@@@@@@@@OXX",
"XXX@@@@@@@@@@@#XXO@@@@@#@@#@@XXXXXX@@#@@#@@@@@OXX#@@@@@@@@@@@XXX",
"XXX@@@@@@####@#XXO##@@@@@@##@#XXXX#@##@@@@@@##OXX#@####@@@@@@XXX",
"XXX#@$@@@@###@#XXX$@@O@@@###@OXXXXO@###@@@O@@$XXX#@###@@@@$@#XXX",
"XXX#@@@@#@###@#XXX#@@O@#####@@XXXX@@#####@O@@#XXX#@###@#@@@@#XXX",
"XXX@@@OO#@#####XXX@@@O######@#XXXX#@######O@@@XXX#####@#OO@@@XXX",
"XXX@@#@@######$XXX#$@@#@#####XXXXXX#####@#@@$#XXX$######@@#@@XXX",
"XXX@@##########XXX@@#@##@####XXXXXX####@##@#@#XXX##########@@XXX",
"XXX@@#####@%###XXX###@@#@@##@#OXXO#@##@@#@@###XXX###%@#####@@XXX",
"XXX##@###@%%###XXX@#%@@#@@$%#@OXXO@#%$@@#@@%#@XXX###%%@###@##XXX",
"XXX##@#@@@%####XXX#@%@###%#@%#OXXO#%@#%###@%@#XXX####%@@@#@##XXX",
"XXXO#$##@##%$%&XXX%#@@#@@@@@@#OXXO#@@@@@@#@@#%XXX&%$%##@##$#OXXX",
"XXXX  .        .     ...       XX       ...     .        .  XXXX",
"XXX.                           XX                           .XXX",
"X. X   .  .                .   XX   .                .  .   X .X",
"X.                             XX                             .X"
};
