/* XPM */
static char *f9f2e74f713e44359eda1a4175ca45acRfwtCpmgRYIxl953[] = {
/* columns rows colors chars-per-pixel */
"64 64 115 2 ",
"   c None",
".  c #CF8B87",
"X  c #CD8E8B",
"o  c #D18B86",
"O  c #D28D89",
"+  c #D4928D",
"@  c #D59691",
"#  c #D89792",
"$  c #D79995",
"%  c #D99C96",
"&  c #D99C97",
"*  c #DB9C96",
"=  c #DA9C97",
"-  c #DA9D97",
";  c #D89A96",
":  c #D99C98",
">  c #DA9C98",
",  c #DB9E98",
"<  c #D99F9A",
"1  c #DA9E9A",
"2  c #DC9D99",
"3  c #DD9E99",
"4  c #DE9E99",
"5  c #DE9E9A",
"6  c #E0A09B",
"7  c #E1A09B",
"8  c #DCAAA5",
"9  c #DCABA6",
"0  c #DFADA8",
"q  c #E0AEA9",
"w  c #E0AEAA",
"e  c #E5B1AC",
"r  c #E6B7B2",
"t  c #E3B9B2",
"y  c #E3B9B3",
"u  c #E4B8B3",
"i  c #E3B8B4",
"p  c #E3B9B4",
"a  c #E3BBB5",
"s  c #E4B9B4",
"d  c #E4B9B5",
"f  c #E4BBB5",
"g  c #E6BAB5",
"h  c #E5BAB6",
"j  c #E4BCB6",
"k  c #E5BCB6",
"l  c #E5BCB7",
"z  c #E5BDB7",
"x  c #E6BCB6",
"c  c #E6BDB6",
"v  c #E6BDB7",
"b  c #E7BDB7",
"n  c #E6BEB7",
"m  c #E9B8B2",
"M  c #EAB9B3",
"N  c #E9BAB4",
"B  c #EABBB6",
"V  c #E5BDB8",
"C  c #E6BCB8",
"Z  c #E6BDB8",
"A  c #E4BEB8",
"S  c #E5BEB8",
"D  c #E6BEB8",
"F  c #E7BEB8",
"G  c #E6BFB8",
"H  c #E7BFB8",
"J  c #E8BEB8",
"K  c #E8BFB9",
"L  c #EDBFB9",
"P  c #EDBFBA",
"I  c #E9C0B9",
"U  c #EAC1BA",
"Y  c #EEC1BB",
"T  c #EAC1BC",
"R  c #EBC1BC",
"E  c #EAC3BC",
"W  c #EBC3BC",
"Q  c #EFC4BE",
"!  c #EFC5BE",
"~  c #EFC4BF",
"^  c #F0C3BD",
"/  c #F0C5BF",
"(  c #F0C5C0",
")  c #F1C5C0",
"_  c #F0C6C0",
"`  c #F1C7C0",
"'  c #F1C6C1",
"]  c #F1C7C1",
"[  c #F3C7C1",
"{  c #F1C7C2",
"}  c #F2C7C2",
"|  c #F1C8C2",
" . c #F1C9C3",
".. c #F2C8C2",
"X. c #F3C9C2",
"o. c #F2C8C3",
"O. c #F2C9C3",
"+. c #F3C9C3",
"@. c #F3CAC3",
"#. c #F4C8C2",
"$. c #F1C9C4",
"%. c #F3C9C4",
"&. c #F2CAC4",
"*. c #F3CAC4",
"=. c #F3CBC4",
"-. c #F2CAC5",
";. c #F3CAC5",
":. c #F3CBC5",
">. c #F3CBC6",
",. c #F4CBC5",
"<. c #F4CBC6",
"1. c #F3CCC6",
"2. c #F4CCC5",
"3. c #F4CCC6",
"4. c #F4CDC7",
/* pixels */
"+ + + + + + + + + + + + + + + +                                                                 + + + + + + + + + + + + + + + + ",
"+ + + + + + + + + + + + + + + +                                                                 + + + + + + + + + + + + + + + + ",
"+ + + + + + + + + + + + + @ + +                                                                 + + @ + + + + + + + + + + + + + ",
"+ + $ 8 &.' | $ ' + Z 2.&.' # +                                                                 + # ' &.2.Z + ' $ | ' &.8 $ + + ",
"+ + $ i 2.2.2.$ &.+ Z &.2.2.$ +                                                                 + $ 2.2.&.Z + &.$ 2.2.2.i $ + + ",
"+ + $ Z ,.2.2.$ &.+ u 2.2.2.$ +                                                                 + $ 2.2.2.u + &.$ 2.2.,.Z $ + + ",
"+ + $ Z 1.2.2.= &.@ h &.2.2.$ +                                                                 + $ 2.2.&.h @ &.= 2.2.1.Z $ + + ",
"+ + @ Z 1.2.| = &.+ k &.2.2.$ +                                                                 + $ 2.2.&.k + &.= | 2.1.Z @ + + ",
"+ + @ Z 2.2.1.@ 2.+ Z 2.,.1.$ +                                                                 + $ 1.2.2.Z + 2.@ 1.2.2.Z @ + + ",
"+ + $ k &.2.2.@ ,.+ k 2.2.2.$ <                                                                 $ $ 2.2.2.k + ,.@ 2.2.2.k $ + + ",
"+ + $ h 2.2.2.+ | + Z 2.2.2.< <                                                                 $ < 2.2.2.K + | + 2.2.2.h $ + + ",
"+ + $ k &.,.| = P + k 2.2.&.$ <                                                                 $ $ &.2.2.k + P = | ,.&.k $ + + ",
"+ + o o o o O O O o o o o o O $                                                                 $ O o o o o o O O O o o o o + + ",
"+ + o O o o + + o o o o o o + <                                                                 $ + o o o o o o + + o o O o + + ",
"+ + @ k &.&.^ + / + k 2.2.2.$ <                                                                 $ $ 2.2.2.k + / + ^ &.&.k @ + + ",
"+ + < Z 1.2.&.+ | + k 2.2.,.$ <                                                                 $ $ ,.2.2.k + | + &.2.1.Z < + + ",
"+ + $ Z 2.2.2.+ &.+ h 2.2.2.$ <                                                                 $ $ 2.2.2.h + &.+ 2.2.2.Z $ + + ",
"+ + $ k 2.2.&.+ 2.+ k 2.2.1.$ <                                                                 $ $ 1.2.2.k + 2.+ &.2.2.k $ + + ",
"+ + $ Z &.2.&.< 2.+ k 2.2.&.$ <                                                                 $ $ 1.2.2.k + 2.< &.2.&.Z $ + + ",
"+ + @ k 2.2.,.@ ,.+ k 2.2.,.$ <                                                                 $ $ 2.2.2.k + ,.@ ,.2.2.k @ + + ",
"+ + $ Z 2.2.| @ 2.+ Z 2.2.2.$ <                                                                 $ $ 2.2.2.Z + 2.@ | 2.2.Z $ + + ",
"+ + $ w | &.&.= e + y 2.2.B < <                                                                 $ < B 2.2.i + e = &.&.| w $ + + ",
"+ + o o O o o + o o o O o o o #                                                                 @ o o O O o o o + o o O o o + + ",
"+ + o O o o o + o o o o o o O <                                                                 $ O O O o o o o + o o o O o + + ",
"+ + + 0 ,.&.| + P + U 2.2.2.$ =                                                                 $ $ 2.2.2.U + P + | &.,.0 + + + ",
"+ + @ k 2.2.&.+ ' + k &.2.2.$ $                                                                 $ $ 2.2.&.k + ' + &.2.2.k @ + + ",
"+ + $ Z 2.2.&.+ ' + K 2.2.2.$ $                                                                 @ $ 2.2.2.K + ' + &.2.2.Z $ + + ",
"+ + $ Z 2.2.&.+ ' + k 2.2.2.$ $                                                                 $ $ 2.2.2.k + ' + &.2.2.Z $ + + ",
"+ + $ Z 2.2.| + ' + Z 2.2.2.$ <                                                                 $ $ 2.2.2.Z + ' + | 2.2.Z $ + + ",
"+ + $ k 2.2.,.+ ~ + Z 2.2.#.$ <                                                                 $ $ #.2.2.Z + ~ + ,.2.2.k $ + + ",
"+ + @ Z 2.2.&.+ ' + U 2.2.2.$ <                                                                 $ $ 2.2.2.U + ' + &.2.2.Z @ + + ",
"+ + $ Z 2.2.2.@ &.+ Z 2.2.&.$ <                                                                 $ $ &.2.2.Z + &.@ 2.2.2.Z $ + + ",
"+ + $ h 2.2.2.@ Y @ T 2.,.P $ <                                                                 $ $ P ,.2.T @ Y @ 2.2.2.h $ + + ",
"+ + O o o o o O o o o o o O O @                                                                 + O O o o o o o O o o o o O + + ",
"+ + o o o o o + o o o o o o @ <                                                                 $ @ o o o o o o + o o o o o + + ",
"+ + + k &.2.,.+ ' + h &.,.2.$ <                                                                 $ $ 2.,.&.i + ' + ,.2.&.k + + + ",
"+ + $ k &.2.2.+ ~ + Z 2.2.2.$ <                                                                 $ $ 2.2.2.Z + ~ + 2.2.&.k $ + + ",
"+ + $ Z 2.2.&.+ m + T | 2.2.$ $                                                                 $ $ 2.2.| T + m + &.2.2.Z $ + + ",
"+ + + k &.2.2.+ ' + Z 2.2.2.$ <                                                                 $ $ 2.2.2.Z + ' + 2.2.&.k + + + ",
"+ + @ Z 2.2.~ @ m + y 2.2.2.= <                                                                 $ = 2.2.2.y + m @ ~ 2.2.Z @ + @ ",
"+ + o o o o o + + o o o o o + <                                                                 $ + o o o o o + O o o o o o + + ",
"+ + o o o o o + O o o o o o + $                                                                 $ + o o o o o O + o o o o o + + ",
"+ + @ w &.&.&.+ | @ T &.2.' $ <                                                                 $ $ ' 2.,.T @ | + &.&.&.w @ + + ",
"+ + $ r | 2.&.+ B # T ,.&.2.$ $                                                                 $ $ 2.&.,.T # B + &.2.| r $ + + ",
"+ + + + + + + + + + + + + + @ $                                                                 $ @ + + + + + + + + + + + + + + ",
"+ + + + + + + + + + + + + + + $                                                                 @ + + + + + + + + + + + + + + + ",
"+ + + # + + + + + + + + + + + @                                                                 + + + + + + + + + + + + # + + + ",
"+ + $ 6 $ @ + + X X + X + + + @                                                                 @ + + + X + X X + + @ $ 6 $ + + ",
"+ + $ 6 $ + + + + + + + + + + #                                                                 + + + + + + + + + + + $ 6 $ + + ",
"+ + + $ $ + + + + + + + + + + @                                                                 + + + + + + + + + + + $ $ + + + ",
"+ + + $ $ + + + + + + + + + + #                                                                 + + + + + + + + + X + $ $ + + + ",
"+ + + $ $ @ + + + + + + + + + @                                                                 + + + + + + + X + + @ $ $ + + + ",
"+ + + $ $ $ + + + + + + + + + @                                                                 + + + + + + + + + + $ $ $ + + + ",
"+ + + $ $ $ X X + + + + + @ + @                                                                 + + @ + + + + + + + $ $ $ + + + ",
"+ + + $ $ @ + @ @ + + + + + + @                                                                 + + + + + + + @ @ + @ $ $ + + + ",
"+ + + @ $ @ @ @ @ @ + + + + + @                                                                 + + + + + + @ @ @ @ @ $ @ + + + ",
"+ + + @ $ @ @ + @ @ + @ @ @ + @                                                                 + + @ @ @ + @ @ + @ @ $ @ + + + ",
"+ + $ $ 4 $ $ $ $ $ $ = @ + + @                                                                 + + + @ = $ $ $ $ $ $ 4 $ $ + + ",
"+ + $ $ 4 $ $ $ $ 4 $ $ 4 + + @                                                                 + + + 4 $ $ 4 $ $ $ $ 4 $ $ + + ",
"+ + # $ $ $ $ $ $ $ $ $ $ @ + @                                                                 + + @ $ $ $ $ $ $ $ $ $ $ # + + ",
"O o o o o O o O o o o o . o o @                                                                 + o o . o o o o O o O o o o o O ",
"o o o o o o o o o o o o o o o @                                                                 + o o o o o o o o o o o o o o O ",
"O o o o o o o o o o o o o o o +                                                                 + o o o o o o o o o o o o o o O ",
"o o o o o o o o o o o o o o o +                                                                 + o o o o o o o o o o o o o o O "
};
