/* XPM */
static char *_3748e039ed340ceccd67a6424ed2370g0qrTRM5k7Wo8EtA[] = {
/* columns rows colors chars-per-pixel */
"64 64 72 1 ",
"  c #1F2327",
". c #F7F6F4",
"X c #F9F7F6",
"o c #71ADB5",
"O c #F3F1F0",
"+ c #F6F4F3",
"@ c #F0EFEE",
"# c #71AEB6",
"$ c #F4F2F1",
"% c #1E2226",
"& c #F1F0EF",
"* c #F5F3F2",
"= c #72AFB7",
"- c #35393D",
"; c #F2F0EF",
": c #1B1F24",
"> c #6DA7AF",
", c #DBDADA",
"< c #4F727A",
"1 c #69A1A9",
"2 c #D6D5D4",
"3 c #626466",
"4 c #486871",
"5 c #536B73",
"6 c #56828B",
"7 c #5B8A92",
"8 c #6FABB3",
"9 c #537A83",
"0 c #669CA4",
"q c #5F6366",
"w c #EDEAE6",
"e c #61959D",
"r c #E5E3E1",
"t c #69767C",
"y c #4B6169",
"u c #B3B5B6",
"i c #FBF9F7",
"p c #727C81",
"a c #949A9D",
"s c #C6C5C3",
"d c #8D6E72",
"f c #CFCECD",
"g c gray68",
"h c #5F9099",
"j c #607077",
"k c #CD8E91",
"l c #425B64",
"z c #9EA8AC",
"x c #DD979A",
"c c #BEBEBC",
"v c #7B8589",
"b c #4A555C",
"n c #666D70",
"m c #B98387",
"M c #899397",
"N c #9EA1A1",
"B c #3A4D53",
"V c #FDF4E6",
"C c #878E91",
"Z c #F8F0E3",
"A c #A87C81",
"S c #75676D",
"D c #6E8489",
"F c #957378",
"G c #7F8B8E",
"H c #5E7D84",
"J c #EB9FA2",
"K c #CFA6A8",
"L c #252C31",
"P c #615B60",
"I c #2E3338",
"U c #20262A",
/* pixels */
"              %-,.*+++++++.+++.ii.+++++++..XXX+O3:              ",
"              %-,X..$OOO$+...X,gz,$*...X.++.XXX*3:              ",
"              %-,i..$OOOO+...u59<tr....X.*++...*3:              ",
"              %-,i..O;OOO+.icy0=o5uf@....***++.*3:              ",
"              %-,iX.O;OOO+i@th=#>ly4aX...*$$$*.*3:              ",
"              %-,X..$OO$+@sM48o=el09nrX.+**$**+$3:              ",
"              %-2+$*+..+ct590###>1#h<jzw*.....*@q:              ",
"              %-2+$$.X;a4h8==o#####=#0<Cw.....$@q:              ",
"              %-2+$$.$a<>=###ooo####o=8<a+....$@q:              ",
"              %-2+$$Xu5>#oo##oooooo#oo#>5ci...$@q:              ",
"              %-2*O$rj0=#=###ooooooo##o=etw.+*O@q:              ",
"              %-,.+Xz9=#108=#o##oo#=>1ooo<c+OO*O3:              ",
"              %-,i.+ve==6b57>>7h18e9y48#=6a$&O+*3:              ",
"              %-,ii@t1=0Dscv594<9<tNsCh#=eG*O;+$3:              ",
"              %-,.cN5>oHfVVZfp6h5cwVVrv1=0jzfO+$3:              ",
"              %-,f5<l>1GZZZcsuh1a2uwZVze=0l<tr.$3:              ",
"              %-,z616>1MZZwnnNe>MCb2VVze=>7192.O3:              ",
"              %-,N76988DfVVsgD>#7NgwVrD1=e4e92*@q:              ",
"              %-,u9>4>o1Dgsgn5HH<yaccGeo=661tw$@q:              ",
"              %-2rj740KK>6bSAkkkkmdP51gKz<9<gXO@q:              ",
"              %-2*fv5HKK0nmxmFddFAkxd7KJMypz;.Owq:              ",
"              %-2**&,tD=HmxdAkxxxmdmxn>M5s*..+$@q:              ",
"              %-,X.+*,t<5AJxxkAAmkxxkq<js$O&;O+O3:              ",
"              %-,X..@ujy4bSSbl964bqSbllpf$&&&&+$3:              ",
"              %-,XX@M5eo>106ddqnSF<111>h5g@&@&+$3:              ",
"              %-,X*a9>=1<1=HmmFAdkn8=76=15uO@&+$3:              ",
"              %-,i2<>=>y48=hSd5jSdHo#14>=0tr&&+$3:              ",
"              %-2.sy7>9B6=o8eh>o0h>#o>40>75,.+$@q:              ",
"              %-2$wC<9lt6=oo#=#o###o#>ly6yv@.+O@q:              ",
"              %-2O;wNMfu9=#ooooooo#o=epajCr.++O@q:              ",
"              %-2$&;...gye8#o====#oo8<u+r&...+O@q:              ",
"              %-2O&&+Xuyl<<>1<7eh1##15rOO+....;@q:              ",
"              %-2+*$$*C7>86e7pMpl1#=14z**$$****&q:              ",
"              %-,X.+&$u51=#8<fiu<==>>7t@.O&&&O+$3:              ",
"              %-,X.+O&@N571htw+2t606<la.+O&&;O+$3:              ",
"              %-,X.+O&&@sCpDs.*O,Nvpvu@.+O&&&O+$3:              ",
"              %-,X..&@@@O*@O..*&O$@@.X..+O&&;O+$3:              ",
"              %-,.++$OO$O$++***$$$$$++*+*$$$$$+O3:              ",
"              %-2$;O+...+O&&@@$....+&&&&O+....$@q:              ",
"              %-2$&O+....O&&@@$....+&&&&&+....$@q:              ",
"              %-2$&&+....O&@@@$....+&&&&&+....O@q:              ",
"              %-2$&&+....O@&@@$....+&&&&;+....&@q:              ",
"              %-2*OO*++++$&$*++++++*&&&;O+++++$@q:              ",
"              %-,X++O&&&&*.ruu,$&&&O+++++O&&&O+$3:              ",
"              %-,X..&@@@@*Ov<<5u@@@O....+&@@@&.rB%              ",
"              %-,X.+&@@@@$,5>=04cO@O+...+;@@@;.2-%              ",
"              %-,X.+&@@@wajB0#=ej,O*....+O@@&rMtI%              ",
"              %-,..+&@@&wj9<6=#o<jMs$...+O&&Ofy6-%              ",
"              %-2$;O*++*cy98>###>065C,$OO*++.,q6B%              ",
"              %-2O@@+..g5eo#######=>9j2O&+..rp6>B%              ",
"              %-2O@@+Xs51=#####o#oo##7trO+.*C9=8B%              ",
"              %-2;@@+@pe=#o###ooo##oo=9a&+Xf5>#8B%              ",
"              %IfO@@.s<o##ooo#=oooooo#152.iz6=o8B%              ",
"               Ua+$$+a78>>#=80eooooooo=9z+OGh>=8B%              ",
"                n@.+@v49<7>75b6oooo#===hG@@v<7e<I%              ",
"              %Lyr.+@vBb4y5vcN7#oo#19610pwOCByjNb:              ",
"              %Ly,X+$aCM7pfZVrD>oo>49<50tw*g4MwZ3:              ",
"              %LyrX.$snG7vpsVZG1o#197046pwOf<nuZ3:              ",
"               Uqw+*$,npetnsVrD>ooo641<<CO;cybNZ3:              ",
"               %p&&;.gqj7<gwwN7ooo8<0844uXwtb52wP:              ",
"              %Lu$@&$pPFAdPtD7zgoo8087l5,X,SdSnp-%              ",
"              %-2O@;wpkkmxxd9oKJzo><4ylg$.NmxJmyB%              ",
"              %-2O@;rFAFAdFxS0zzooo174Mw&.aSddkAL%              ",
"              %-2O@@@vAJJJAxFe#ooo8hyawO&.fPkkmkI%              "
};
